<?xml version="1.0" encoding="UTF-8" standalone="no"?>
<svg
   sodipodi:docname="RECM.svg"
   id="svg138"
   version="1.1"
   viewBox="0 0 629.0921 317.83301"
   role="img"
   class="svg-inline--fa fa-accusoft fa-w-20"
   data-icon="accusoft"
   data-prefix="fab"
   focusable="false"
   aria-hidden="true"
   width="629.0921"
   height="317.83301"
   inkscape:version="1.1.1 (c3084ef, 2021-09-22)"
   xmlns:inkscape="http://www.inkscape.org/namespaces/inkscape"
   xmlns:sodipodi="http://sodipodi.sourceforge.net/DTD/sodipodi-0.dtd"
   xmlns="http://www.w3.org/2000/svg"
   xmlns:svg="http://www.w3.org/2000/svg"
   xmlns:ns6="http://www.iki.fi/pav/software/textext/"
   style="color: white;">
  <defs
     id="defs142" />
  <sodipodi:namedview
     id="namedview140"
     pagecolor="#ffffff"
     bordercolor="#666666"
     borderopacity="1.0"
     inkscape:pageshadow="2"
     inkscape:pageopacity="0.0"
     inkscape:pagecheckerboard="0"
     showgrid="false"
     inkscape:zoom="1.3451333"
     inkscape:cx="334.91105"
     inkscape:cy="230.83214"
     inkscape:window-width="2048"
     inkscape:window-height="1001"
     inkscape:window-x="0"
     inkscape:window-y="25"
     inkscape:window-maximized="1"
     inkscape:current-layer="svg138"
     inkscape:lockguides="true"
     fit-margin-top="0"
     fit-margin-left="0"
     fit-margin-right="0"
     fit-margin-bottom="0" />
  <g
     transform="matrix(7.5986356,0,0,8.5883368,3.5627487,7.2517194)"
     ns6:version="1.6.1"
     ns6:texconverter="pdflatex"
     ns6:pdfconverter="inkscape"
     ns6:text="$$\\sqrt{\\frac{1}{N}\\sum_{i=1}^{N}(R_{i}-P_{i})^2}$$\n"
     ns6:preamble="default_packages.tex"
     ns6:scale="10.0"
     ns6:alignment="middle center"
     ns6:stroke-to-path="0"
     ns6:inkscapeversion="1.1.1"
     ns6:jacobian_sqrt="13.3333"
     id="g1389"
     style="fill:currentColor">
    <defs
       id="id-7c61877c-6530-4d91-bfa9-c22ac9b562b6">
      <g
         id="id-fab46982-f478-4192-805b-08028827b992">
        <symbol
           overflow="visible"
           id="id-bb480fe2-adfa-4755-9e23-47e25262fe14">
          <path
             style="stroke:none;stroke-width:0"
             d=""
             id="id-85870745-765c-4359-a6ee-d179c165ca9c" />
        </symbol>
        <symbol
           overflow="visible"
           id="id-a860018a-7d8a-46ce-8593-bebef488f8ac">
          <path
             style="stroke:none;stroke-width:0"
             d="M 7.359375,-0.40625 C 7.03125,-0.40625 7,-0.375 7,-0.046875 V 5.4375 c 0,0.171875 0,0.34375 0.203125,0.34375 0.1875,0 0.1875,-0.171875 0.1875,-0.34375 V 0 H 10.375 c 0.171875,0 0.34375,0 0.34375,-0.203125 0,-0.203125 -0.171875,-0.203125 -0.34375,-0.203125 z m 0,0"
             id="id-7abbe3d7-c209-40ef-aa25-d44bde782ac9" />
        </symbol>
        <symbol
           overflow="visible"
           id="id-8b197d3a-dbd6-401b-9d06-527d72488560">
          <path
             style="stroke:none;stroke-width:0"
             d="M 7,5.828125 C 7,6 7,6.1875 7.203125,6.1875 c 0.1875,0 0.1875,-0.1875 0.1875,-0.359375 V 0.15625 c 0,-0.171875 0,-0.359375 -0.1875,-0.359375 C 7,-0.203125 7,-0.015625 7,0.15625 Z m 0,0"
             id="id-4a763b70-e942-4479-a67f-404b199c33c2" />
        </symbol>
        <symbol
           overflow="visible"
           id="id-964d5db9-f776-48be-a75b-6e8e8812e933">
          <path
             style="stroke:none;stroke-width:0"
             d="m 7,17.9375 c 0.375,0 0.390625,-0.04687 0.390625,-0.359375 V 0.15625 c 0,-0.171875 0,-0.359375 -0.1875,-0.359375 C 7,-0.203125 7,-0.015625 7,0.15625 v 15.25 H 6.984375 L 2.5,1.78125 1.109375,4.5 1.25,4.65625 2.078125,3.046875 Z m 0,0"
             id="id-c4953a00-7376-4901-8e36-0d8ef38f3061" />
        </symbol>
        <symbol
           overflow="visible"
           id="id-03691258-41c6-4058-829f-7c59c37cc1d1">
          <path
             style="stroke:none;stroke-width:0"
             d="m 12.625,13.953125 1.203125,-3.1875 h -0.25 c -0.390625,1.03125 -1.453125,1.71875 -2.59375,2.015625 -0.203125,0.04687 -1.1875,0.3125 -3.09375,0.3125 H 1.875 L 6.953125,7.140625 C 7.015625,7.0625 7.03125,7.03125 7.03125,6.984375 c 0,-0.03125 0,-0.0625 -0.0625,-0.15625 L 2.328125,0.484375 H 7.78125 c 1.34375,0 2.25,0.140625 2.34375,0.15625 0.53125,0.078125 1.40625,0.25 2.1875,0.75 0.25,0.15625 0.921875,0.609375 1.265625,1.40625 h 0.25 L 12.625,0 H 0.84375 c -0.234375,0 -0.25,0.015625 -0.28125,0.0625 0,0.03125 0,0.234375 0,0.34375 l 5.265625,7.203125 -5.15625,6.0625 C 0.5625,13.78125 0.5625,13.84375 0.5625,13.84375 c 0,0.109375 0.09375,0.109375 0.28125,0.109375 z m 0,0"
             id="id-ed95dfd9-86ca-4e42-9936-807c4b419ee9" />
        </symbol>
        <symbol
           overflow="visible"
           id="id-949534db-eb1b-47f7-a409-40bc504b5ccf">
          <path
             style="stroke:none;stroke-width:0"
             d=""
             id="id-bad3c41a-324f-48a7-857a-cc947d863a86" />
        </symbol>
        <symbol
           overflow="visible"
           id="id-8aeea40b-51e1-481d-b2a1-be2303a0a55f">
          <path
             style="stroke:none;stroke-width:0"
             d="m 2.9375,-6.375 c 0,-0.25 0,-0.265625 -0.234375,-0.265625 C 2.078125,-6 1.203125,-6 0.890625,-6 v 0.3125 c 0.203125,0 0.78125,0 1.296875,-0.265625 v 5.171875 c 0,0.359375 -0.03125,0.46875 -0.921875,0.46875 h -0.3125 V 0 c 0.34375,-0.03125 1.203125,-0.03125 1.609375,-0.03125 0.390625,0 1.265625,0 1.609375,0.03125 v -0.3125 h -0.3125 c -0.90625,0 -0.921875,-0.109375 -0.921875,-0.46875 z m 0,0"
             id="id-91cb52fd-ef0f-4e08-bdfe-2a546741b59f" />
        </symbol>
        <symbol
           overflow="visible"
           id="id-4c051ca6-28b3-4eac-b358-b10e021337a2">
          <path
             style="stroke:none;stroke-width:0"
             d="m 3.296875,2.390625 c 0,-0.03125 0,-0.046875 -0.171875,-0.21875 C 1.890625,0.921875 1.5625,-0.96875 1.5625,-2.5 c 0,-1.734375 0.375,-3.46875 1.609375,-4.703125 0.125,-0.125 0.125,-0.140625 0.125,-0.171875 0,-0.078125 -0.03125,-0.109375 -0.09375,-0.109375 -0.109375,0 -1,0.6875 -1.59375,1.953125 -0.5,1.09375 -0.625,2.203125 -0.625,3.03125 0,0.78125 0.109375,1.984375 0.65625,3.125 C 2.25,1.84375 3.09375,2.5 3.203125,2.5 c 0.0625,0 0.09375,-0.03125 0.09375,-0.109375 z m 0,0"
             id="id-0e2fc7d2-8ce8-40d7-9e6d-d49eda2bf503" />
        </symbol>
        <symbol
           overflow="visible"
           id="id-a91b0439-be29-4163-9af9-1980d9841fb5">
          <path
             style="stroke:none;stroke-width:0"
             d="m 2.875,-2.5 c 0,-0.765625 -0.109375,-1.96875 -0.65625,-3.109375 -0.59375,-1.21875 -1.453125,-1.875 -1.546875,-1.875 -0.0625,0 -0.109375,0.046875 -0.109375,0.109375 0,0.03125 0,0.046875 0.1875,0.234375 0.984375,0.984375 1.546875,2.5625 1.546875,4.640625 0,1.71875 -0.359375,3.46875 -1.59375,4.71875 C 0.5625,2.34375 0.5625,2.359375 0.5625,2.390625 0.5625,2.453125 0.609375,2.5 0.671875,2.5 0.765625,2.5 1.671875,1.8125 2.25,0.546875 2.765625,-0.546875 2.875,-1.65625 2.875,-2.5 Z m 0,0"
             id="id-c9d61a70-a0b8-4fe2-8376-60c6906f4798" />
        </symbol>
        <symbol
           overflow="visible"
           id="id-3b1d3739-c5ad-46d0-bb6e-9dc75c90595a">
          <path
             style="stroke:none;stroke-width:0"
             d=""
             id="id-0551d074-405b-4b35-8c8d-c34cb3978112" />
        </symbol>
        <symbol
           overflow="visible"
           id="id-f2819f87-d681-4c65-ae62-92c1c8977628">
          <path
             style="stroke:none;stroke-width:0"
             d="M 7.53125,-5.765625 C 7.640625,-6.15625 7.8125,-6.46875 8.609375,-6.5 c 0.046875,0 0.171875,-0.015625 0.171875,-0.203125 0,0 0,-0.109375 -0.125,-0.109375 -0.328125,0 -0.6875,0.03125 -1.015625,0.03125 -0.328125,0 -0.6875,-0.03125 -1.015625,-0.03125 -0.0625,0 -0.171875,0 -0.171875,0.203125 C 6.453125,-6.5 6.546875,-6.5 6.625,-6.5 c 0.578125,0.015625 0.6875,0.21875 0.6875,0.4375 0,0.03125 -0.03125,0.1875 -0.03125,0.203125 l -1.125,4.4375 L 3.953125,-6.625 C 3.875,-6.796875 3.875,-6.8125 3.640625,-6.8125 h -1.34375 c -0.1875,0 -0.28125,0 -0.28125,0.203125 0,0.109375 0.09375,0.109375 0.28125,0.109375 0.046875,0 0.671875,0 0.671875,0.09375 L 1.640625,-1.0625 c -0.109375,0.40625 -0.28125,0.71875 -1.078125,0.75 -0.0625,0 -0.171875,0.015625 -0.171875,0.203125 0,0.0625 0.046875,0.109375 0.125,0.109375 0.328125,0 0.671875,-0.03125 1,-0.03125 C 1.859375,-0.03125 2.21875,0 2.546875,0 2.59375,0 2.71875,0 2.71875,-0.203125 2.71875,-0.296875 2.625,-0.3125 2.515625,-0.3125 1.9375,-0.328125 1.859375,-0.546875 1.859375,-0.75 c 0,-0.0625 0.015625,-0.125 0.046875,-0.234375 l 1.3125,-5.25 C 3.265625,-6.1875 3.265625,-6.15625 3.3125,-6.0625 l 2.484375,5.875 C 5.859375,-0.015625 5.890625,0 5.984375,0 6.09375,0 6.09375,-0.03125 6.140625,-0.203125 Z m 0,0"
             id="id-66309151-8215-4740-b7e5-c875da797827" />
        </symbol>
        <symbol
           overflow="visible"
           id="id-2407507c-e139-4a67-8beb-3ff254f36442">
          <path
             style="stroke:none;stroke-width:0"
             d="m 3.734375,-6.125 c 0.0625,-0.234375 0.09375,-0.328125 0.28125,-0.359375 C 4.109375,-6.5 4.421875,-6.5 4.625,-6.5 c 0.703125,0 1.8125,0 1.8125,0.984375 0,0.34375 -0.15625,1.03125 -0.546875,1.421875 -0.265625,0.25 -0.78125,0.578125 -1.6875,0.578125 H 3.09375 Z m 1.4375,2.734375 c 1.015625,-0.21875 2.1875,-0.921875 2.1875,-1.921875 0,-0.859375 -0.890625,-1.5 -2.203125,-1.5 H 2.328125 c -0.203125,0 -0.296875,0 -0.296875,0.203125 C 2.03125,-6.5 2.125,-6.5 2.3125,-6.5 c 0.015625,0 0.203125,0 0.375,0.015625 0.1875,0.03125 0.265625,0.03125 0.265625,0.171875 0,0.03125 0,0.0625 -0.03125,0.1875 l -1.34375,5.34375 C 1.484375,-0.390625 1.46875,-0.3125 0.671875,-0.3125 0.5,-0.3125 0.40625,-0.3125 0.40625,-0.109375 0.40625,0 0.53125,0 0.546875,0 c 0.28125,0 0.984375,-0.03125 1.25,-0.03125 0.28125,0 1,0.03125 1.28125,0.03125 0.078125,0 0.1875,0 0.1875,-0.203125 0,-0.109375 -0.078125,-0.109375 -0.28125,-0.109375 -0.359375,0 -0.640625,0 -0.640625,-0.171875 0,-0.0625 0.015625,-0.109375 0.03125,-0.171875 l 0.65625,-2.640625 h 1.1875 c 0.90625,0 1.078125,0.5625 1.078125,0.90625 0,0.140625 -0.078125,0.453125 -0.140625,0.6875 C 5.09375,-1.421875 5,-1.0625 5,-0.859375 5,0.21875 6.203125,0.21875 6.328125,0.21875 c 0.84375,0 1.203125,-1 1.203125,-1.140625 0,-0.125 -0.109375,-0.125 -0.125,-0.125 -0.09375,0 -0.109375,0.0625 -0.125,0.140625 C 7.03125,-0.171875 6.59375,0 6.375,0 6.046875,0 5.96875,-0.21875 5.96875,-0.609375 c 0,-0.3125 0.0625,-0.8125 0.109375,-1.140625 0.015625,-0.140625 0.03125,-0.328125 0.03125,-0.46875 0,-0.765625 -0.671875,-1.078125 -0.9375,-1.171875 z m 0,0"
             id="id-22e182c6-cf4c-4993-9cac-731ca20fda3c" />
        </symbol>
        <symbol
           overflow="visible"
           id="id-94c16e91-11ef-48d6-b40c-8c45f46b53db">
          <path
             style="stroke:none;stroke-width:0"
             d="M 3.015625,-3.15625 H 4.71875 c 1.40625,0 2.796875,-1.03125 2.796875,-2.140625 0,-0.78125 -0.65625,-1.515625 -1.96875,-1.515625 h -3.21875 c -0.1875,0 -0.296875,0 -0.296875,0.1875 0,0.125 0.078125,0.125 0.28125,0.125 0.125,0 0.3125,0.015625 0.421875,0.015625 0.171875,0.03125 0.21875,0.046875 0.21875,0.171875 0,0.03125 0,0.0625 -0.03125,0.1875 l -1.34375,5.34375 c -0.09375,0.390625 -0.109375,0.46875 -0.90625,0.46875 -0.15625,0 -0.265625,0 -0.265625,0.1875 C 0.40625,0 0.515625,0 0.546875,0 0.828125,0 1.53125,-0.03125 1.8125,-0.03125 c 0.21875,0 0.4375,0.015625 0.640625,0.015625 0.21875,0 0.4375,0.015625 0.640625,0.015625 0.078125,0 0.203125,0 0.203125,-0.203125 0,-0.109375 -0.09375,-0.109375 -0.28125,-0.109375 -0.359375,0 -0.640625,0 -0.640625,-0.171875 0,-0.0625 0.015625,-0.109375 0.03125,-0.171875 z M 3.734375,-6.125 C 3.828125,-6.46875 3.84375,-6.5 4.28125,-6.5 h 0.953125 c 0.828125,0 1.359375,0.265625 1.359375,0.953125 0,0.390625 -0.203125,1.25 -0.59375,1.609375 -0.5,0.453125 -1.09375,0.53125 -1.53125,0.53125 H 3.0625 Z m 0,0"
             id="id-1a12bf88-1923-495b-b344-056432ddacb5" />
        </symbol>
        <symbol
           overflow="visible"
           id="id-fb3e1cb2-be78-4b02-a326-6b56ee22b60f">
          <path
             style="stroke:none;stroke-width:0"
             d=""
             id="id-b1e4d4d8-e56b-4192-9dc4-0f530ed52d61" />
        </symbol>
        <symbol
           overflow="visible"
           id="id-d7409dae-f636-44aa-933b-932b9b3bd109">
          <path
             style="stroke:none;stroke-width:0"
             d="M 5.8125,-4 C 5.875,-4.265625 6,-4.5 6.546875,-4.515625 c 0.03125,0 0.140625,0 0.140625,-0.140625 0,-0.046875 -0.03125,-0.109375 -0.109375,-0.109375 -0.21875,0 -0.484375,0.03125 -0.71875,0.03125 -0.171875,0 -0.5625,-0.03125 -0.734375,-0.03125 -0.03125,0 -0.140625,0 -0.140625,0.15625 0,0.09375 0.09375,0.09375 0.15625,0.09375 0.328125,0.015625 0.4375,0.125 0.4375,0.296875 0,0.046875 0,0.09375 -0.03125,0.15625 l -0.75,3.046875 -1.765625,-3.625 c -0.0625,-0.125 -0.078125,-0.125 -0.25,-0.125 H 1.828125 c -0.125,0 -0.21875,0 -0.21875,0.15625 0,0.09375 0.078125,0.09375 0.234375,0.09375 0.140625,0 0.296875,0.015625 0.4375,0.046875 L 1.359375,-0.75 c -0.0625,0.265625 -0.1875,0.484375 -0.734375,0.5 -0.046875,0 -0.140625,0 -0.140625,0.140625 C 0.484375,-0.03125 0.53125,0 0.578125,0 0.8125,0 1.078125,-0.03125 1.3125,-0.03125 1.484375,-0.03125 1.875,0 2.046875,0 2.125,0 2.1875,-0.03125 2.1875,-0.140625 2.1875,-0.25 2.109375,-0.25 2.03125,-0.25 c -0.4375,-0.015625 -0.4375,-0.203125 -0.4375,-0.296875 0,-0.03125 0,-0.0625 0.015625,-0.171875 l 0.90625,-3.5625 2.03125,4.15625 C 4.59375,0 4.625,0 4.703125,0 4.8125,0 4.8125,-0.015625 4.84375,-0.140625 Z m 0,0"
             id="id-809037c1-02ae-46b6-a21b-0ee3366cf946" />
        </symbol>
        <symbol
           overflow="visible"
           id="id-1bb67bce-d76b-40db-a551-1f643ecb8fc8">
          <path
             style="stroke:none;stroke-width:0"
             d="m 2.265625,-4.359375 c 0,-0.109375 -0.09375,-0.265625 -0.28125,-0.265625 -0.1875,0 -0.390625,0.1875 -0.390625,0.390625 0,0.109375 0.078125,0.265625 0.28125,0.265625 0.1875,0 0.390625,-0.203125 0.390625,-0.390625 z M 0.84375,-0.8125 c -0.03125,0.09375 -0.0625,0.171875 -0.0625,0.296875 0,0.328125 0.265625,0.578125 0.65625,0.578125 0.6875,0 1,-0.953125 1,-1.0625 0,-0.09375 -0.09375,-0.09375 -0.109375,-0.09375 -0.09375,0 -0.109375,0.046875 -0.140625,0.125 -0.15625,0.5625 -0.453125,0.84375 -0.734375,0.84375 -0.140625,0 -0.171875,-0.09375 -0.171875,-0.25 0,-0.15625 0.046875,-0.28125 0.109375,-0.4375 C 1.46875,-1 1.546875,-1.1875 1.609375,-1.375 1.671875,-1.546875 1.9375,-2.171875 1.953125,-2.265625 1.984375,-2.328125 2,-2.40625 2,-2.484375 2,-2.8125 1.71875,-3.078125 1.34375,-3.078125 0.640625,-3.078125 0.328125,-2.125 0.328125,-2 c 0,0.078125 0.09375,0.078125 0.125,0.078125 0.09375,0 0.09375,-0.03125 0.125,-0.109375 C 0.75,-2.625 1.0625,-2.875 1.3125,-2.875 c 0.109375,0 0.171875,0.046875 0.171875,0.234375 0,0.171875 -0.03125,0.265625 -0.203125,0.703125 z m 0,0"
             id="id-115b6b1c-5b81-4916-933a-173e4b90ab5d" />
        </symbol>
        <symbol
           overflow="visible"
           id="id-94301945-7cc6-405f-b72f-5943fa290cfe">
          <path
             style="stroke:none;stroke-width:0"
             d=""
             id="id-e6d386ce-2115-4e7f-acdf-4ee97d64e4fb" />
        </symbol>
        <symbol
           overflow="visible"
           id="id-307a2cb8-9eec-4b68-a0dc-b4eabb4ed10b">
          <path
             style="stroke:none;stroke-width:0"
             d="m 5.359375,-2.34375 c 0.09375,0 0.25,0 0.25,-0.171875 0,-0.171875 -0.15625,-0.171875 -0.25,-0.171875 H 0.75 c -0.09375,0 -0.265625,0 -0.265625,0.171875 0,0.171875 0.15625,0.171875 0.265625,0.171875 z m 0,1.53125 c 0.09375,0 0.25,0 0.25,-0.15625 0,-0.1875 -0.15625,-0.1875 -0.25,-0.1875 H 0.75 c -0.109375,0 -0.265625,0 -0.265625,0.1875 0,0.15625 0.171875,0.15625 0.265625,0.15625 z m 0,0"
             id="id-3064cb39-dc39-4bcf-b4be-c44e87949ab3" />
        </symbol>
        <symbol
           overflow="visible"
           id="id-12754f8b-ab30-4a1c-8367-3a0a16f5b6fb">
          <path
             style="stroke:none;stroke-width:0"
             d="m 2.328125,-4.4375 c 0,-0.1875 0,-0.1875 -0.203125,-0.1875 -0.453125,0.4375 -1.078125,0.4375 -1.359375,0.4375 v 0.25 c 0.15625,0 0.625,0 1,-0.1875 v 3.546875 c 0,0.234375 0,0.328125 -0.6875,0.328125 H 0.8125 V 0 c 0.125,0 0.984375,-0.03125 1.234375,-0.03125 0.21875,0 1.09375,0.03125 1.25,0.03125 V -0.25 H 3.03125 c -0.703125,0 -0.703125,-0.09375 -0.703125,-0.328125 z m 0,0"
             id="id-a54f3d0d-5c19-4528-b3de-8f1be7c66b1f" />
        </symbol>
        <symbol
           overflow="visible"
           id="id-948d75a2-f5fc-44f3-b165-923e3a99b523">
          <path
             style="stroke:none;stroke-width:0"
             d="M 3.515625,-1.265625 H 3.28125 c -0.015625,0.15625 -0.09375,0.5625 -0.1875,0.625 C 3.046875,-0.59375 2.515625,-0.59375 2.40625,-0.59375 H 1.125 c 0.734375,-0.640625 0.984375,-0.84375 1.390625,-1.171875 0.515625,-0.40625 1,-0.84375 1,-1.5 0,-0.84375 -0.734375,-1.359375 -1.625,-1.359375 -0.859375,0 -1.453125,0.609375 -1.453125,1.25 0,0.34375 0.296875,0.390625 0.375,0.390625 0.15625,0 0.359375,-0.125 0.359375,-0.375 0,-0.125 -0.046875,-0.375 -0.40625,-0.375 C 0.984375,-4.21875 1.453125,-4.375 1.78125,-4.375 c 0.703125,0 1.0625,0.546875 1.0625,1.109375 0,0.609375 -0.4375,1.078125 -0.65625,1.328125 L 0.515625,-0.265625 C 0.4375,-0.203125 0.4375,-0.1875 0.4375,0 h 2.875 z m 0,0"
             id="id-d34bb238-e352-440c-be58-702b00681fb8" />
        </symbol>
        <symbol
           overflow="visible"
           id="id-5344c713-64a9-4d8d-baa6-1bce8725c882">
          <path
             style="stroke:none;stroke-width:0"
             d=""
             id="id-d100e804-5081-476a-837f-8e7b50ae6552" />
        </symbol>
        <symbol
           overflow="visible"
           id="id-fd462645-d044-416b-b928-9d3fd36f73ee">
          <path
             style="stroke:none;stroke-width:0"
             d="m 6.5625,-2.296875 c 0.171875,0 0.359375,0 0.359375,-0.203125 0,-0.1875 -0.1875,-0.1875 -0.359375,-0.1875 H 1.171875 c -0.171875,0 -0.34375,0 -0.34375,0.1875 0,0.203125 0.171875,0.203125 0.34375,0.203125 z m 0,0"
             id="id-8cf9e930-587a-4b11-b616-c24961f13632" />
        </symbol>
      </g>
    </defs>
    <g
       id="id-74e33659-addd-424f-b390-3cefb6452159"
       transform="translate(-265.214,-136.152)"
       style="fill:currentColor">
      <g
         style="fill:currentColor;fill-opacity:1"
         id="id-3883e63d-d9a2-481a-89f7-820ae0ac8e82">
        <g
           transform="translate(264.105,136.558)"
           id="g1312"
           style="fill:currentColor">
          <path
             style="stroke:none;stroke-width:0;fill:currentColor"
             d="M 7.359375,-0.40625 C 7.03125,-0.40625 7,-0.375 7,-0.046875 V 5.4375 c 0,0.171875 0,0.34375 0.203125,0.34375 0.1875,0 0.1875,-0.171875 0.1875,-0.34375 V 0 H 10.375 c 0.171875,0 0.34375,0 0.34375,-0.203125 0,-0.203125 -0.171875,-0.203125 -0.34375,-0.203125 z m 0,0"
             id="id-b67a30ab-86a3-4dba-9ecf-12a70571a040" />
        </g>
      </g>
      <g
         style="fill:currentColor;fill-opacity:1"
         id="id-e315ef4d-6803-4a50-9ccd-62691e704c0e">
        <g
           transform="translate(264.105,142.137)"
           id="g1316"
           style="fill:currentColor">
          <path
             style="stroke:none;stroke-width:0;fill:currentColor"
             d="M 7,5.828125 C 7,6 7,6.1875 7.203125,6.1875 c 0.1875,0 0.1875,-0.1875 0.1875,-0.359375 V 0.15625 c 0,-0.171875 0,-0.359375 -0.1875,-0.359375 C 7,-0.203125 7,-0.015625 7,0.15625 Z m 0,0"
             id="id-f1fdad0f-cd67-4a1a-a7b5-d06c71437f6d" />
        </g>
      </g>
      <g
         style="fill:currentColor;fill-opacity:1"
         id="id-5e224c1e-08a1-4f67-bc30-ae01af0f3708">
        <g
           transform="translate(264.105,148.115)"
           id="g1320"
           style="fill:currentColor">
          <path
             style="stroke:none;stroke-width:0;fill:currentColor"
             d="M 7,5.828125 C 7,6 7,6.1875 7.203125,6.1875 c 0.1875,0 0.1875,-0.1875 0.1875,-0.359375 V 0.15625 c 0,-0.171875 0,-0.359375 -0.1875,-0.359375 C 7,-0.203125 7,-0.015625 7,0.15625 Z m 0,0"
             id="id-decd6ece-1226-4480-b49c-bf5ba741dfe7" />
        </g>
      </g>
      <g
         style="fill:currentColor;fill-opacity:1"
         id="id-4776f0b5-ffcc-406a-8181-61309f817441">
        <g
           transform="translate(264.105,154.093)"
           id="g1324"
           style="fill:currentColor">
          <path
             style="stroke:none;stroke-width:0;fill:currentColor"
             d="m 7,17.9375 c 0.375,0 0.390625,-0.04687 0.390625,-0.359375 V 0.15625 c 0,-0.171875 0,-0.359375 -0.1875,-0.359375 C 7,-0.203125 7,-0.015625 7,0.15625 v 15.25 H 6.984375 L 2.5,1.78125 1.109375,4.5 1.25,4.65625 2.078125,3.046875 Z m 0,0"
             id="id-bd8527f9-215f-4328-8fff-b5d11be0f262" />
        </g>
      </g>
      <path
         style="fill:currentColor;stroke:currentColor;stroke-width:0.398;stroke-linecap:butt;stroke-linejoin:miter;stroke-miterlimit:10;stroke-opacity:1"
         d="M 9.375e-5,-3.75e-4 H 72.523531"
         transform="matrix(1,0,0,-1,274.621,136.359)"
         id="id-b828f0bb-df68-4dba-8bda-6f643b37c5e2" />
      <g
         style="fill:currentColor;fill-opacity:1"
         id="id-d950dcd1-fb45-446b-8cf7-cda943c9adf3">
        <g
           transform="translate(277.871,151.02)"
           id="g1329"
           style="fill:currentColor">
          <path
             style="stroke:none;stroke-width:0;fill:currentColor"
             d="m 2.9375,-6.375 c 0,-0.25 0,-0.265625 -0.234375,-0.265625 C 2.078125,-6 1.203125,-6 0.890625,-6 v 0.3125 c 0.203125,0 0.78125,0 1.296875,-0.265625 v 5.171875 c 0,0.359375 -0.03125,0.46875 -0.921875,0.46875 h -0.3125 V 0 c 0.34375,-0.03125 1.203125,-0.03125 1.609375,-0.03125 0.390625,0 1.265625,0 1.609375,0.03125 v -0.3125 h -0.3125 c -0.90625,0 -0.921875,-0.109375 -0.921875,-0.46875 z m 0,0"
             id="id-388b79ea-8ed9-448c-9279-cd919e7e0c9b" />
        </g>
      </g>
      <path
         style="fill:currentColor;stroke:currentColor;stroke-width:0.398;stroke-linecap:butt;stroke-linejoin:miter;stroke-miterlimit:10;stroke-opacity:1"
         d="M -5.9375e-4,-5.3125e-4 H 9.08925"
         transform="matrix(1,0,0,-1,275.817,155.269)"
         id="id-4583410c-4216-44bd-b5c3-4345b0d5a2e2" />
      <g
         style="fill:currentColor;fill-opacity:1"
         id="id-0927eb94-7c03-4620-8c47-b1ea472bee99">
        <g
           transform="translate(275.817,164.593)"
           id="g1334"
           style="fill:currentColor">
          <path
             style="stroke:none;stroke-width:0;fill:currentColor"
             d="M 7.53125,-5.765625 C 7.640625,-6.15625 7.8125,-6.46875 8.609375,-6.5 c 0.046875,0 0.171875,-0.015625 0.171875,-0.203125 0,0 0,-0.109375 -0.125,-0.109375 -0.328125,0 -0.6875,0.03125 -1.015625,0.03125 -0.328125,0 -0.6875,-0.03125 -1.015625,-0.03125 -0.0625,0 -0.171875,0 -0.171875,0.203125 C 6.453125,-6.5 6.546875,-6.5 6.625,-6.5 c 0.578125,0.015625 0.6875,0.21875 0.6875,0.4375 0,0.03125 -0.03125,0.1875 -0.03125,0.203125 l -1.125,4.4375 L 3.953125,-6.625 C 3.875,-6.796875 3.875,-6.8125 3.640625,-6.8125 h -1.34375 c -0.1875,0 -0.28125,0 -0.28125,0.203125 0,0.109375 0.09375,0.109375 0.28125,0.109375 0.046875,0 0.671875,0 0.671875,0.09375 L 1.640625,-1.0625 c -0.109375,0.40625 -0.28125,0.71875 -1.078125,0.75 -0.0625,0 -0.171875,0.015625 -0.171875,0.203125 0,0.0625 0.046875,0.109375 0.125,0.109375 0.328125,0 0.671875,-0.03125 1,-0.03125 C 1.859375,-0.03125 2.21875,0 2.546875,0 2.59375,0 2.71875,0 2.71875,-0.203125 2.71875,-0.296875 2.625,-0.3125 2.515625,-0.3125 1.9375,-0.328125 1.859375,-0.546875 1.859375,-0.75 c 0,-0.0625 0.015625,-0.125 0.046875,-0.234375 l 1.3125,-5.25 C 3.265625,-6.1875 3.265625,-6.15625 3.3125,-6.0625 l 2.484375,5.875 C 5.859375,-0.015625 5.890625,0 5.984375,0 6.09375,0 6.09375,-0.03125 6.140625,-0.203125 Z m 0,0"
             id="id-540a67b0-d01f-4f56-ad12-f2363ec35b79" />
        </g>
      </g>
      <g
         style="fill:currentColor;fill-opacity:1"
         id="id-c8b6e3b5-966f-42ed-8468-b5ef355ad72d">
        <g
           transform="translate(291.43,145.306)"
           id="g1338"
           style="fill:currentColor">
          <path
             style="stroke:none;stroke-width:0;fill:currentColor"
             d="M 5.8125,-4 C 5.875,-4.265625 6,-4.5 6.546875,-4.515625 c 0.03125,0 0.140625,0 0.140625,-0.140625 0,-0.046875 -0.03125,-0.109375 -0.109375,-0.109375 -0.21875,0 -0.484375,0.03125 -0.71875,0.03125 -0.171875,0 -0.5625,-0.03125 -0.734375,-0.03125 -0.03125,0 -0.140625,0 -0.140625,0.15625 0,0.09375 0.09375,0.09375 0.15625,0.09375 0.328125,0.015625 0.4375,0.125 0.4375,0.296875 0,0.046875 0,0.09375 -0.03125,0.15625 l -0.75,3.046875 -1.765625,-3.625 c -0.0625,-0.125 -0.078125,-0.125 -0.25,-0.125 H 1.828125 c -0.125,0 -0.21875,0 -0.21875,0.15625 0,0.09375 0.078125,0.09375 0.234375,0.09375 0.140625,0 0.296875,0.015625 0.4375,0.046875 L 1.359375,-0.75 c -0.0625,0.265625 -0.1875,0.484375 -0.734375,0.5 -0.046875,0 -0.140625,0 -0.140625,0.140625 C 0.484375,-0.03125 0.53125,0 0.578125,0 0.8125,0 1.078125,-0.03125 1.3125,-0.03125 1.484375,-0.03125 1.875,0 2.046875,0 2.125,0 2.1875,-0.03125 2.1875,-0.140625 2.1875,-0.25 2.109375,-0.25 2.03125,-0.25 c -0.4375,-0.015625 -0.4375,-0.203125 -0.4375,-0.296875 0,-0.03125 0,-0.0625 0.015625,-0.171875 l 0.90625,-3.5625 2.03125,4.15625 C 4.59375,0 4.625,0 4.703125,0 4.8125,0 4.8125,-0.015625 4.84375,-0.140625 Z m 0,0"
             id="id-926eb032-058f-49da-8a52-9b43edfcebe7" />
        </g>
      </g>
      <g
         style="fill:currentColor;fill-opacity:1"
         id="id-d5ac7ebd-113f-42af-ae6e-6cb6b6683f51">
        <g
           transform="translate(287.763,148.295)"
           id="g1342"
           style="fill:currentColor">
          <path
             style="stroke:none;stroke-width:0;fill:currentColor"
             d="m 12.625,13.953125 1.203125,-3.1875 h -0.25 c -0.390625,1.03125 -1.453125,1.71875 -2.59375,2.015625 -0.203125,0.04687 -1.1875,0.3125 -3.09375,0.3125 H 1.875 L 6.953125,7.140625 C 7.015625,7.0625 7.03125,7.03125 7.03125,6.984375 c 0,-0.03125 0,-0.0625 -0.0625,-0.15625 L 2.328125,0.484375 H 7.78125 c 1.34375,0 2.25,0.140625 2.34375,0.15625 0.53125,0.078125 1.40625,0.25 2.1875,0.75 0.25,0.15625 0.921875,0.609375 1.265625,1.40625 h 0.25 L 12.625,0 H 0.84375 c -0.234375,0 -0.25,0.015625 -0.28125,0.0625 0,0.03125 0,0.234375 0,0.34375 l 5.265625,7.203125 -5.15625,6.0625 C 0.5625,13.78125 0.5625,13.84375 0.5625,13.84375 c 0,0.109375 0.09375,0.109375 0.28125,0.109375 z m 0,0"
             id="id-baf9e64a-77be-4c79-b8fa-bcc6e477e782" />
        </g>
      </g>
      <g
         style="fill:currentColor;fill-opacity:1"
         id="id-56a4787c-1114-4782-93e6-4900b1c61e14">
        <g
           transform="translate(288.506,169.514)"
           id="g1346"
           style="fill:currentColor">
          <path
             style="stroke:none;stroke-width:0;fill:currentColor"
             d="m 2.265625,-4.359375 c 0,-0.109375 -0.09375,-0.265625 -0.28125,-0.265625 -0.1875,0 -0.390625,0.1875 -0.390625,0.390625 0,0.109375 0.078125,0.265625 0.28125,0.265625 0.1875,0 0.390625,-0.203125 0.390625,-0.390625 z M 0.84375,-0.8125 c -0.03125,0.09375 -0.0625,0.171875 -0.0625,0.296875 0,0.328125 0.265625,0.578125 0.65625,0.578125 0.6875,0 1,-0.953125 1,-1.0625 0,-0.09375 -0.09375,-0.09375 -0.109375,-0.09375 -0.09375,0 -0.109375,0.046875 -0.140625,0.125 -0.15625,0.5625 -0.453125,0.84375 -0.734375,0.84375 -0.140625,0 -0.171875,-0.09375 -0.171875,-0.25 0,-0.15625 0.046875,-0.28125 0.109375,-0.4375 C 1.46875,-1 1.546875,-1.1875 1.609375,-1.375 1.671875,-1.546875 1.9375,-2.171875 1.953125,-2.265625 1.984375,-2.328125 2,-2.40625 2,-2.484375 2,-2.8125 1.71875,-3.078125 1.34375,-3.078125 0.640625,-3.078125 0.328125,-2.125 0.328125,-2 c 0,0.078125 0.09375,0.078125 0.125,0.078125 0.09375,0 0.09375,-0.03125 0.125,-0.109375 C 0.75,-2.625 1.0625,-2.875 1.3125,-2.875 c 0.109375,0 0.171875,0.046875 0.171875,0.234375 0,0.171875 -0.03125,0.265625 -0.203125,0.703125 z m 0,0"
             id="id-f796bd70-340d-43a2-a010-79dd656c8a21" />
        </g>
      </g>
      <g
         style="fill:currentColor;fill-opacity:1"
         id="id-02c646c1-9af7-4020-9363-35614ef6aaaa">
        <g
           transform="translate(291.324,169.514)"
           id="g1350"
           style="fill:currentColor">
          <path
             style="stroke:none;stroke-width:0;fill:currentColor"
             d="m 5.359375,-2.34375 c 0.09375,0 0.25,0 0.25,-0.171875 0,-0.171875 -0.15625,-0.171875 -0.25,-0.171875 H 0.75 c -0.09375,0 -0.265625,0 -0.265625,0.171875 0,0.171875 0.15625,0.171875 0.265625,0.171875 z m 0,1.53125 c 0.09375,0 0.25,0 0.25,-0.15625 0,-0.1875 -0.15625,-0.1875 -0.25,-0.1875 H 0.75 c -0.109375,0 -0.265625,0 -0.265625,0.1875 0,0.15625 0.171875,0.15625 0.265625,0.15625 z m 0,0"
             id="id-6697bac3-9178-405b-8e1e-b97ac5cb54a2" />
        </g>
        <g
           transform="translate(297.44,169.514)"
           id="g1353"
           style="fill:currentColor">
          <path
             style="stroke:none;stroke-width:0;fill:currentColor"
             d="m 2.328125,-4.4375 c 0,-0.1875 0,-0.1875 -0.203125,-0.1875 -0.453125,0.4375 -1.078125,0.4375 -1.359375,0.4375 v 0.25 c 0.15625,0 0.625,0 1,-0.1875 v 3.546875 c 0,0.234375 0,0.328125 -0.6875,0.328125 H 0.8125 V 0 c 0.125,0 0.984375,-0.03125 1.234375,-0.03125 0.21875,0 1.09375,0.03125 1.25,0.03125 V -0.25 H 3.03125 c -0.703125,0 -0.703125,-0.09375 -0.703125,-0.328125 z m 0,0"
             id="id-f7182368-8745-4224-9a42-694e5bf3824e" />
        </g>
      </g>
      <g
         style="fill:currentColor;fill-opacity:1"
         id="id-f46ca19d-495f-44d2-8703-2b0af121a6ff">
        <g
           transform="translate(302.154,157.759)"
           id="g1357"
           style="fill:currentColor">
          <path
             style="stroke:none;stroke-width:0;fill:currentColor"
             d="m 3.296875,2.390625 c 0,-0.03125 0,-0.046875 -0.171875,-0.21875 C 1.890625,0.921875 1.5625,-0.96875 1.5625,-2.5 c 0,-1.734375 0.375,-3.46875 1.609375,-4.703125 0.125,-0.125 0.125,-0.140625 0.125,-0.171875 0,-0.078125 -0.03125,-0.109375 -0.09375,-0.109375 -0.109375,0 -1,0.6875 -1.59375,1.953125 -0.5,1.09375 -0.625,2.203125 -0.625,3.03125 0,0.78125 0.109375,1.984375 0.65625,3.125 C 2.25,1.84375 3.09375,2.5 3.203125,2.5 c 0.0625,0 0.09375,-0.03125 0.09375,-0.109375 z m 0,0"
             id="id-2091cb95-f650-42fb-ad09-49b5c5beff67" />
        </g>
      </g>
      <g
         style="fill:currentColor;fill-opacity:1"
         id="id-9ec295c5-5d3b-4f9d-83d9-39088a22e6c8">
        <g
           transform="translate(306.028,157.759)"
           id="g1361"
           style="fill:currentColor">
          <path
             style="stroke:none;stroke-width:0;fill:currentColor"
             d="m 3.734375,-6.125 c 0.0625,-0.234375 0.09375,-0.328125 0.28125,-0.359375 C 4.109375,-6.5 4.421875,-6.5 4.625,-6.5 c 0.703125,0 1.8125,0 1.8125,0.984375 0,0.34375 -0.15625,1.03125 -0.546875,1.421875 -0.265625,0.25 -0.78125,0.578125 -1.6875,0.578125 H 3.09375 Z m 1.4375,2.734375 c 1.015625,-0.21875 2.1875,-0.921875 2.1875,-1.921875 0,-0.859375 -0.890625,-1.5 -2.203125,-1.5 H 2.328125 c -0.203125,0 -0.296875,0 -0.296875,0.203125 C 2.03125,-6.5 2.125,-6.5 2.3125,-6.5 c 0.015625,0 0.203125,0 0.375,0.015625 0.1875,0.03125 0.265625,0.03125 0.265625,0.171875 0,0.03125 0,0.0625 -0.03125,0.1875 l -1.34375,5.34375 C 1.484375,-0.390625 1.46875,-0.3125 0.671875,-0.3125 0.5,-0.3125 0.40625,-0.3125 0.40625,-0.109375 0.40625,0 0.53125,0 0.546875,0 c 0.28125,0 0.984375,-0.03125 1.25,-0.03125 0.28125,0 1,0.03125 1.28125,0.03125 0.078125,0 0.1875,0 0.1875,-0.203125 0,-0.109375 -0.078125,-0.109375 -0.28125,-0.109375 -0.359375,0 -0.640625,0 -0.640625,-0.171875 0,-0.0625 0.015625,-0.109375 0.03125,-0.171875 l 0.65625,-2.640625 h 1.1875 c 0.90625,0 1.078125,0.5625 1.078125,0.90625 0,0.140625 -0.078125,0.453125 -0.140625,0.6875 C 5.09375,-1.421875 5,-1.0625 5,-0.859375 5,0.21875 6.203125,0.21875 6.328125,0.21875 c 0.84375,0 1.203125,-1 1.203125,-1.140625 0,-0.125 -0.109375,-0.125 -0.125,-0.125 -0.09375,0 -0.109375,0.0625 -0.125,0.140625 C 7.03125,-0.171875 6.59375,0 6.375,0 6.046875,0 5.96875,-0.21875 5.96875,-0.609375 c 0,-0.3125 0.0625,-0.8125 0.109375,-1.140625 0.015625,-0.140625 0.03125,-0.328125 0.03125,-0.46875 0,-0.765625 -0.671875,-1.078125 -0.9375,-1.171875 z m 0,0"
             id="id-dd91d787-46ad-471e-b65b-c15f1fa41706" />
        </g>
      </g>
      <g
         style="fill:currentColor;fill-opacity:1"
         id="id-89172ea7-1d8a-493d-958e-c4ab113e121c">
        <g
           transform="translate(313.593,159.254)"
           id="g1365"
           style="fill:currentColor">
          <path
             style="stroke:none;stroke-width:0;fill:currentColor"
             d="m 2.265625,-4.359375 c 0,-0.109375 -0.09375,-0.265625 -0.28125,-0.265625 -0.1875,0 -0.390625,0.1875 -0.390625,0.390625 0,0.109375 0.078125,0.265625 0.28125,0.265625 0.1875,0 0.390625,-0.203125 0.390625,-0.390625 z M 0.84375,-0.8125 c -0.03125,0.09375 -0.0625,0.171875 -0.0625,0.296875 0,0.328125 0.265625,0.578125 0.65625,0.578125 0.6875,0 1,-0.953125 1,-1.0625 0,-0.09375 -0.09375,-0.09375 -0.109375,-0.09375 -0.09375,0 -0.109375,0.046875 -0.140625,0.125 -0.15625,0.5625 -0.453125,0.84375 -0.734375,0.84375 -0.140625,0 -0.171875,-0.09375 -0.171875,-0.25 0,-0.15625 0.046875,-0.28125 0.109375,-0.4375 C 1.46875,-1 1.546875,-1.1875 1.609375,-1.375 1.671875,-1.546875 1.9375,-2.171875 1.953125,-2.265625 1.984375,-2.328125 2,-2.40625 2,-2.484375 2,-2.8125 1.71875,-3.078125 1.34375,-3.078125 0.640625,-3.078125 0.328125,-2.125 0.328125,-2 c 0,0.078125 0.09375,0.078125 0.125,0.078125 0.09375,0 0.09375,-0.03125 0.125,-0.109375 C 0.75,-2.625 1.0625,-2.875 1.3125,-2.875 c 0.109375,0 0.171875,0.046875 0.171875,0.234375 0,0.171875 -0.03125,0.265625 -0.203125,0.703125 z m 0,0"
             id="id-ff377804-8e1c-4531-a7bc-c96e0f30f198" />
        </g>
      </g>
      <g
         style="fill:currentColor;fill-opacity:1"
         id="id-09624c1a-6d90-43ef-9541-ad4fe90307bb">
        <g
           transform="translate(319.124,157.759)"
           id="g1369"
           style="fill:currentColor">
          <path
             style="stroke:none;stroke-width:0;fill:currentColor"
             d="m 6.5625,-2.296875 c 0.171875,0 0.359375,0 0.359375,-0.203125 0,-0.1875 -0.1875,-0.1875 -0.359375,-0.1875 H 1.171875 c -0.171875,0 -0.34375,0 -0.34375,0.1875 0,0.203125 0.171875,0.203125 0.34375,0.203125 z m 0,0"
             id="id-94a334e1-ecba-4156-893b-d92368c7853f" />
        </g>
      </g>
      <g
         style="fill:currentColor;fill-opacity:1"
         id="id-d3f2e251-a6d3-4b47-b481-090d7b7bc4d4">
        <g
           transform="translate(329.086,157.759)"
           id="g1373"
           style="fill:currentColor">
          <path
             style="stroke:none;stroke-width:0;fill:currentColor"
             d="M 3.015625,-3.15625 H 4.71875 c 1.40625,0 2.796875,-1.03125 2.796875,-2.140625 0,-0.78125 -0.65625,-1.515625 -1.96875,-1.515625 h -3.21875 c -0.1875,0 -0.296875,0 -0.296875,0.1875 0,0.125 0.078125,0.125 0.28125,0.125 0.125,0 0.3125,0.015625 0.421875,0.015625 0.171875,0.03125 0.21875,0.046875 0.21875,0.171875 0,0.03125 0,0.0625 -0.03125,0.1875 l -1.34375,5.34375 c -0.09375,0.390625 -0.109375,0.46875 -0.90625,0.46875 -0.15625,0 -0.265625,0 -0.265625,0.1875 C 0.40625,0 0.515625,0 0.546875,0 0.828125,0 1.53125,-0.03125 1.8125,-0.03125 c 0.21875,0 0.4375,0.015625 0.640625,0.015625 0.21875,0 0.4375,0.015625 0.640625,0.015625 0.078125,0 0.203125,0 0.203125,-0.203125 0,-0.109375 -0.09375,-0.109375 -0.28125,-0.109375 -0.359375,0 -0.640625,0 -0.640625,-0.171875 0,-0.0625 0.015625,-0.109375 0.03125,-0.171875 z M 3.734375,-6.125 C 3.828125,-6.46875 3.84375,-6.5 4.28125,-6.5 h 0.953125 c 0.828125,0 1.359375,0.265625 1.359375,0.953125 0,0.390625 -0.203125,1.25 -0.59375,1.609375 -0.5,0.453125 -1.09375,0.53125 -1.53125,0.53125 H 3.0625 Z m 0,0"
             id="id-1bcdafc6-138b-45f7-80e6-3f821b349824" />
        </g>
      </g>
      <g
         style="fill:currentColor;fill-opacity:1"
         id="id-b25f3e7f-5ef7-4162-9a5a-2a7463be7822">
        <g
           transform="translate(335.482,159.254)"
           id="g1377"
           style="fill:currentColor">
          <path
             style="stroke:none;stroke-width:0;fill:currentColor"
             d="m 2.265625,-4.359375 c 0,-0.109375 -0.09375,-0.265625 -0.28125,-0.265625 -0.1875,0 -0.390625,0.1875 -0.390625,0.390625 0,0.109375 0.078125,0.265625 0.28125,0.265625 0.1875,0 0.390625,-0.203125 0.390625,-0.390625 z M 0.84375,-0.8125 c -0.03125,0.09375 -0.0625,0.171875 -0.0625,0.296875 0,0.328125 0.265625,0.578125 0.65625,0.578125 0.6875,0 1,-0.953125 1,-1.0625 0,-0.09375 -0.09375,-0.09375 -0.109375,-0.09375 -0.09375,0 -0.109375,0.046875 -0.140625,0.125 -0.15625,0.5625 -0.453125,0.84375 -0.734375,0.84375 -0.140625,0 -0.171875,-0.09375 -0.171875,-0.25 0,-0.15625 0.046875,-0.28125 0.109375,-0.4375 C 1.46875,-1 1.546875,-1.1875 1.609375,-1.375 1.671875,-1.546875 1.9375,-2.171875 1.953125,-2.265625 1.984375,-2.328125 2,-2.40625 2,-2.484375 2,-2.8125 1.71875,-3.078125 1.34375,-3.078125 0.640625,-3.078125 0.328125,-2.125 0.328125,-2 c 0,0.078125 0.09375,0.078125 0.125,0.078125 0.09375,0 0.09375,-0.03125 0.125,-0.109375 C 0.75,-2.625 1.0625,-2.875 1.3125,-2.875 c 0.109375,0 0.171875,0.046875 0.171875,0.234375 0,0.171875 -0.03125,0.265625 -0.203125,0.703125 z m 0,0"
             id="id-2f69d510-0ae6-4155-9ad9-2c864c3e8791" />
        </g>
      </g>
      <g
         style="fill:currentColor;fill-opacity:1"
         id="id-36c8a73b-eb17-4ddf-8eb4-bf91c5dfe2ca">
        <g
           transform="translate(338.799,157.759)"
           id="g1381"
           style="fill:currentColor">
          <path
             style="stroke:none;stroke-width:0;fill:currentColor"
             d="m 2.875,-2.5 c 0,-0.765625 -0.109375,-1.96875 -0.65625,-3.109375 -0.59375,-1.21875 -1.453125,-1.875 -1.546875,-1.875 -0.0625,0 -0.109375,0.046875 -0.109375,0.109375 0,0.03125 0,0.046875 0.1875,0.234375 0.984375,0.984375 1.546875,2.5625 1.546875,4.640625 0,1.71875 -0.359375,3.46875 -1.59375,4.71875 C 0.5625,2.34375 0.5625,2.359375 0.5625,2.390625 0.5625,2.453125 0.609375,2.5 0.671875,2.5 0.765625,2.5 1.671875,1.8125 2.25,0.546875 2.765625,-0.546875 2.875,-1.65625 2.875,-2.5 Z m 0,0"
             id="id-bd0189c6-8624-4c05-a0f9-8c5740eed4f2" />
        </g>
      </g>
      <g
         style="fill:currentColor;fill-opacity:1"
         id="id-7d8b38cf-2a84-448f-a0e4-141c306f746d">
        <g
           transform="translate(342.674,154.881)"
           id="g1385"
           style="fill:currentColor">
          <path
             style="stroke:none;stroke-width:0;fill:currentColor"
             d="M 3.515625,-1.265625 H 3.28125 c -0.015625,0.15625 -0.09375,0.5625 -0.1875,0.625 C 3.046875,-0.59375 2.515625,-0.59375 2.40625,-0.59375 H 1.125 c 0.734375,-0.640625 0.984375,-0.84375 1.390625,-1.171875 0.515625,-0.40625 1,-0.84375 1,-1.5 0,-0.84375 -0.734375,-1.359375 -1.625,-1.359375 -0.859375,0 -1.453125,0.609375 -1.453125,1.25 0,0.34375 0.296875,0.390625 0.375,0.390625 0.15625,0 0.359375,-0.125 0.359375,-0.375 0,-0.125 -0.046875,-0.375 -0.40625,-0.375 C 0.984375,-4.21875 1.453125,-4.375 1.78125,-4.375 c 0.703125,0 1.0625,0.546875 1.0625,1.109375 0,0.609375 -0.4375,1.078125 -0.65625,1.328125 L 0.515625,-0.265625 C 0.4375,-0.203125 0.4375,-0.1875 0.4375,0 h 2.875 z m 0,0"
             id="id-30939d36-fc93-4fa7-b96b-7171c1415108" />
        </g>
      </g>
    </g>
  </g>
</svg>
